<mxfile host="app.diagrams.net" modified="2022-11-20T23:32:05.908Z" agent="5.0 (Macintosh; Intel Mac OS X 10_15_7) AppleWebKit/605.1.15 (KHTML, like Gecko) Version/16.1 Safari/605.1.15" etag="kxmt5DMImJ0xjmfOTLOZ" version="20.5.3" type="github">
  <diagram id="FIxnGgVHaGochU8fmX4p" name="Página-1">
    <mxGraphModel dx="1981" dy="715" grid="1" gridSize="10" guides="1" tooltips="1" connect="1" arrows="1" fold="1" page="1" pageScale="1" pageWidth="827" pageHeight="1169" math="0" shadow="0">
      <root>
        <mxCell id="0" />
        <mxCell id="1" parent="0" />
        <mxCell id="HSkRyl3O7Hn2DS-7T1eo-1" value="" style="strokeWidth=1;shadow=0;dashed=0;align=center;html=1;shape=mxgraph.mockup.containers.browserWindow;rSize=0;strokeColor=#666666;strokeColor2=#008cff;strokeColor3=#c4c4c4;mainText=,;recursiveResize=0;" vertex="1" parent="1">
          <mxGeometry x="-70" y="180" width="740" height="520" as="geometry" />
        </mxCell>
        <mxCell id="HSkRyl3O7Hn2DS-7T1eo-2" value="Page 1" style="strokeWidth=1;shadow=0;dashed=0;align=center;html=1;shape=mxgraph.mockup.containers.anchor;fontSize=17;fontColor=#666666;align=left;" vertex="1" parent="HSkRyl3O7Hn2DS-7T1eo-1">
          <mxGeometry x="60" y="12" width="110" height="26" as="geometry" />
        </mxCell>
        <mxCell id="HSkRyl3O7Hn2DS-7T1eo-3" value="https://www.draw.io" style="strokeWidth=1;shadow=0;dashed=0;align=center;html=1;shape=mxgraph.mockup.containers.anchor;rSize=0;fontSize=17;fontColor=#666666;align=left;" vertex="1" parent="HSkRyl3O7Hn2DS-7T1eo-1">
          <mxGeometry x="130" y="60" width="250" height="26" as="geometry" />
        </mxCell>
        <mxCell id="HSkRyl3O7Hn2DS-7T1eo-5" value="&lt;span style=&quot;font-weight: 400; caret-color: rgb(33, 37, 41); color: rgb(33, 37, 41); font-family: system-ui, -apple-system, &amp;quot;Segoe UI&amp;quot;, Roboto, &amp;quot;Helvetica Neue&amp;quot;, &amp;quot;Noto Sans&amp;quot;, &amp;quot;Liberation Sans&amp;quot;, Arial, sans-serif, &amp;quot;Apple Color Emoji&amp;quot;, &amp;quot;Segoe UI Emoji&amp;quot;, &amp;quot;Segoe UI Symbol&amp;quot;, &amp;quot;Noto Color Emoji&amp;quot;; font-size: 15px; background-color: rgb(255, 255, 255);&quot;&gt;Patrocinador Identificador :&lt;/span&gt;" style="rounded=1;whiteSpace=wrap;html=1;arcSize=50;strokeColor=none;strokeWidth=1;fillColor=#F8F9FA;fontColor=#000000;whiteSpace=wrap;align=left;verticalAlign=middle;spacingLeft=0;fontStyle=1;fontSize=14;spacing=10;" vertex="1" parent="HSkRyl3O7Hn2DS-7T1eo-1">
          <mxGeometry x="60" y="290" width="220" height="20" as="geometry" />
        </mxCell>
        <mxCell id="HSkRyl3O7Hn2DS-7T1eo-7" value="Crear" style="strokeWidth=1;shadow=0;dashed=0;align=center;html=1;shape=mxgraph.mockup.buttons.button;strokeColor=#666666;fontColor=#ffffff;mainText=;buttonStyle=round;fontSize=17;fontStyle=1;fillColor=#008cff;whiteSpace=wrap;" vertex="1" parent="HSkRyl3O7Hn2DS-7T1eo-1">
          <mxGeometry x="60" y="430" width="100" height="30" as="geometry" />
        </mxCell>
        <mxCell id="HSkRyl3O7Hn2DS-7T1eo-8" value="Cancelar" style="strokeWidth=1;shadow=0;dashed=0;align=center;html=1;shape=mxgraph.mockup.buttons.button;strokeColor=#666666;fontColor=#ffffff;mainText=;buttonStyle=round;fontSize=17;fontStyle=1;fillColor=#FF3333;whiteSpace=wrap;" vertex="1" parent="HSkRyl3O7Hn2DS-7T1eo-1">
          <mxGeometry x="170" y="430" width="100" height="30" as="geometry" />
        </mxCell>
        <mxCell id="HSkRyl3O7Hn2DS-7T1eo-9" value="&lt;h2 style=&quot;box-sizing: border-box; margin: 0px 0px 0.5rem; padding: 0px; font-size: 2rem; font-family: &amp;quot;Segoe UI&amp;quot;, Arial, sans-serif; font-weight: 500; line-height: 1.2; caret-color: rgb(33, 37, 41); color: rgb(33, 37, 41); text-align: center !important;&quot; class=&quot;text-center&quot;&gt;Crear una nueva exhibición&lt;/h2&gt;" style="html=1;shadow=0;dashed=0;shape=mxgraph.bootstrap.rrect;rSize=5;strokeColor=none;strokeWidth=1;fillColor=#F8F9FA;fontColor=#000000;whiteSpace=wrap;align=left;verticalAlign=middle;spacingLeft=0;fontStyle=1;fontSize=14;spacing=5;" vertex="1" parent="HSkRyl3O7Hn2DS-7T1eo-1">
          <mxGeometry x="190" y="140" width="430" height="50" as="geometry" />
        </mxCell>
        <mxCell id="HSkRyl3O7Hn2DS-7T1eo-16" value="Escoger Patrocinador" style="html=1;shadow=0;dashed=0;shape=mxgraph.bootstrap.rrect;rSize=5;fillColor=#ffffff;strokeColor=#CED4DA;align=left;spacing=15;fontSize=14;fontColor=#6C767D;" vertex="1" parent="HSkRyl3O7Hn2DS-7T1eo-1">
          <mxGeometry x="290" y="290" width="290" height="20" as="geometry" />
        </mxCell>
        <mxCell id="HSkRyl3O7Hn2DS-7T1eo-17" value="" style="shape=triangle;direction=south;fillColor=#343A40;strokeColor=none;perimeter=none;" vertex="1" parent="HSkRyl3O7Hn2DS-7T1eo-16">
          <mxGeometry x="1" y="0.5" width="7" height="3" relative="1" as="geometry">
            <mxPoint x="-17" y="1" as="offset" />
          </mxGeometry>
        </mxCell>
        <mxCell id="HSkRyl3O7Hn2DS-7T1eo-18" value="" style="shape=triangle;direction=north;fillColor=#343A40;strokeColor=none;perimeter=none;" vertex="1" parent="HSkRyl3O7Hn2DS-7T1eo-16">
          <mxGeometry x="1" y="0.5" width="7" height="3" relative="1" as="geometry">
            <mxPoint x="-17" y="-4" as="offset" />
          </mxGeometry>
        </mxCell>
        <mxCell id="HSkRyl3O7Hn2DS-7T1eo-21" value="Nombre" style="fillColor=none;strokeColor=none;align=left;fontSize=14;fontColor=#212529;" vertex="1" parent="HSkRyl3O7Hn2DS-7T1eo-1">
          <mxGeometry x="70" y="210" width="260" height="40" as="geometry" />
        </mxCell>
        <mxCell id="HSkRyl3O7Hn2DS-7T1eo-22" value="Nombre de Exhibición" style="html=1;shadow=0;dashed=0;shape=mxgraph.bootstrap.rrect;rSize=5;fillColor=none;strokeColor=#999999;align=left;spacing=15;fontSize=14;fontColor=#6C767D;" vertex="1" parent="HSkRyl3O7Hn2DS-7T1eo-1">
          <mxGeometry width="530" height="30" relative="1" as="geometry">
            <mxPoint x="70" y="250" as="offset" />
          </mxGeometry>
        </mxCell>
        <mxCell id="HSkRyl3O7Hn2DS-7T1eo-25" value="&lt;span style=&quot;font-weight: 400; caret-color: rgb(33, 37, 41); color: rgb(33, 37, 41); font-family: system-ui, -apple-system, &amp;quot;Segoe UI&amp;quot;, Roboto, &amp;quot;Helvetica Neue&amp;quot;, &amp;quot;Noto Sans&amp;quot;, &amp;quot;Liberation Sans&amp;quot;, Arial, sans-serif, &amp;quot;Apple Color Emoji&amp;quot;, &amp;quot;Segoe UI Emoji&amp;quot;, &amp;quot;Segoe UI Symbol&amp;quot;, &amp;quot;Noto Color Emoji&amp;quot;; font-size: 15px; background-color: rgb(255, 255, 255);&quot;&gt;Museo Identificador :&lt;/span&gt;" style="rounded=1;whiteSpace=wrap;html=1;arcSize=50;strokeColor=none;strokeWidth=1;fillColor=#F8F9FA;fontColor=#000000;whiteSpace=wrap;align=left;verticalAlign=middle;spacingLeft=0;fontStyle=1;fontSize=14;spacing=10;" vertex="1" parent="HSkRyl3O7Hn2DS-7T1eo-1">
          <mxGeometry x="60" y="320" width="220" height="20" as="geometry" />
        </mxCell>
        <mxCell id="HSkRyl3O7Hn2DS-7T1eo-26" value="Escoger Museo" style="html=1;shadow=0;dashed=0;shape=mxgraph.bootstrap.rrect;rSize=5;fillColor=#ffffff;strokeColor=#CED4DA;align=left;spacing=15;fontSize=14;fontColor=#6C767D;" vertex="1" parent="HSkRyl3O7Hn2DS-7T1eo-1">
          <mxGeometry x="290" y="320" width="290" height="20" as="geometry" />
        </mxCell>
        <mxCell id="HSkRyl3O7Hn2DS-7T1eo-27" value="" style="shape=triangle;direction=south;fillColor=#343A40;strokeColor=none;perimeter=none;" vertex="1" parent="HSkRyl3O7Hn2DS-7T1eo-26">
          <mxGeometry x="1" y="0.5" width="7" height="3" relative="1" as="geometry">
            <mxPoint x="-17" y="1" as="offset" />
          </mxGeometry>
        </mxCell>
        <mxCell id="HSkRyl3O7Hn2DS-7T1eo-28" value="" style="shape=triangle;direction=north;fillColor=#343A40;strokeColor=none;perimeter=none;" vertex="1" parent="HSkRyl3O7Hn2DS-7T1eo-26">
          <mxGeometry x="1" y="0.5" width="7" height="3" relative="1" as="geometry">
            <mxPoint x="-17" y="-4" as="offset" />
          </mxGeometry>
        </mxCell>
        <mxCell id="HSkRyl3O7Hn2DS-7T1eo-29" value="Descripción" style="fillColor=none;strokeColor=none;align=left;fontSize=14;fontColor=#212529;" vertex="1" parent="HSkRyl3O7Hn2DS-7T1eo-1">
          <mxGeometry x="70" y="340" width="260" height="40" as="geometry" />
        </mxCell>
        <mxCell id="HSkRyl3O7Hn2DS-7T1eo-30" value="Descripción corta" style="html=1;shadow=0;dashed=0;shape=mxgraph.bootstrap.rrect;rSize=5;fillColor=none;strokeColor=#999999;align=left;spacing=15;fontSize=14;fontColor=#6C767D;" vertex="1" parent="HSkRyl3O7Hn2DS-7T1eo-1">
          <mxGeometry x="70" y="375" width="530" height="30" as="geometry" />
        </mxCell>
      </root>
    </mxGraphModel>
  </diagram>
</mxfile>
